<svg width="24" height="24" viewBox="0 0 24 24" fill="none" xmlns="http://www.w3.org/2000/svg">
<path d="M11.25 7.80392C11.25 7.68189 11.3488 7.58392 11.47 7.58392H12.8639C12.9851 7.58392 13.0839 7.68189 13.0839 7.80392V9.19696C13.0839 9.31813 12.9851 9.41696 12.8639 9.41696H11.47C11.3488 9.41696 11.25 9.31813 11.25 9.19696V7.80392ZM11.25 11.47C11.25 11.3488 11.3488 11.25 11.47 11.25H12.8639C12.9851 11.25 13.0839 11.3488 13.0839 11.47V16.53C13.0839 16.652 12.9851 16.75 12.8639 16.75H11.47C11.3488 16.75 11.25 16.652 11.25 16.53V11.47ZM12.167 3C7.10696 3 3 7.10696 3 12.167C3 17.227 7.10696 21.3339 12.167 21.3339C17.227 21.3339 21.3339 17.227 21.3339 12.167C21.3339 7.10696 17.227 3 12.167 3ZM12.167 19.5C8.12446 19.5 4.83392 16.2095 4.83392 12.167C4.83392 8.12446 8.12446 4.83392 12.167 4.83392C16.2095 4.83392 19.5 8.12446 19.5 12.167C19.5 16.2095 16.2095 19.5 12.167 19.5Z" fill="black"/>
</svg>
