<svg width="32" height="32" viewBox="0 0 32 32" fill="none" xmlns="http://www.w3.org/2000/svg">
<path d="M23.4166 15.0249C23.0085 15.0249 22.6275 15.1288 22.2846 15.2985V10.1887C22.2846 8.98217 21.3077 8 20.1077 8H11.8932C10.6932 8 9.71626 8.98217 9.71626 10.1887V15.3003C9.37338 15.1307 8.99242 15.0258 8.58333 15.0258C7.15924 15.0258 6 16.1913 6 17.624V24.2704C6 24.6735 6.32472 25 6.72566 25H25.2743C25.6753 25 26 24.6735 26 24.2704V17.624C26 16.1923 24.8408 15.0258 23.4167 15.0258L23.4166 15.0249ZM9.71626 19.8118V23.5399H7.45222V17.6231C7.45222 16.9956 7.95927 16.484 8.58424 16.484C9.20921 16.484 9.71717 16.9947 9.71717 17.6231V19.8118H9.71626ZM20.8333 23.5399H11.1676V19.8118C11.1676 19.4087 11.4923 19.0822 11.8932 19.0822H20.1077C20.5086 19.0822 20.8333 19.4087 20.8333 19.8118V23.5399ZM20.8333 17.6231V17.7571C20.6056 17.675 20.3635 17.6231 20.1077 17.6231H11.8932C11.6374 17.6231 11.3953 17.676 11.1676 17.7571V10.1888C11.1676 9.78659 11.4923 9.45921 11.8932 9.45921H20.1077C20.5086 9.45921 20.8333 9.78659 20.8333 10.1888V17.6231ZM24.5477 23.5399H22.2846V17.6231C22.2846 16.9956 22.7917 16.484 23.4166 16.484C24.0416 16.484 24.5486 16.9947 24.5486 17.6231V23.5399H24.5477Z" fill="black"/>
</svg>
