<svg width="32" height="32" viewBox="0 0 32 32" fill="none" xmlns="http://www.w3.org/2000/svg">
<path d="M25.6416 14.091C25.111 14.091 24.6158 14.2256 24.17 14.4451V7.83244C24.17 6.27105 22.9 5 21.3399 5H10.6612C9.10112 5 7.83114 6.27105 7.83114 7.83244V14.4475C7.3854 14.228 6.89014 14.0923 6.35833 14.0923C4.50701 14.0923 3 15.6005 3 17.4546V26.0559C3 26.5775 3.42214 27 3.94335 27H28.0566C28.5779 27 29 26.5775 29 26.0559V17.4546C29 15.6017 27.493 14.0923 25.6417 14.0923L25.6416 14.091ZM7.83114 20.2858V25.1105H4.88788V17.4534C4.88788 16.6414 5.54705 15.9793 6.35951 15.9793C7.17197 15.9793 7.83232 16.6402 7.83232 17.4534V20.2858H7.83114ZM22.2833 25.1105H9.71785V20.2858C9.71785 19.7642 10.14 19.3417 10.6612 19.3417H21.3399C21.8612 19.3417 22.2833 19.7642 22.2833 20.2858V25.1105ZM22.2833 17.4534V17.6269C21.9873 17.5207 21.6725 17.4534 21.3399 17.4534H10.6612C10.3287 17.4534 10.0138 17.5218 9.71785 17.6269V7.83253C9.71785 7.31206 10.14 6.88839 10.6612 6.88839H21.3399C21.8612 6.88839 22.2833 7.31206 22.2833 7.83253V17.4534ZM27.1121 25.1105H24.17V17.4534C24.17 16.6414 24.8291 15.9793 25.6416 15.9793C26.4541 15.9793 27.1132 16.6402 27.1132 17.4534V25.1105H27.1121Z" fill="#DCD7C4"/>
</svg>
