<svg width="32" height="32" viewBox="0 0 32 32" fill="none" xmlns="http://www.w3.org/2000/svg">
<path d="M11.5 23.6406C12.5492 24.277 13.7335 25 16 25C18.2665 25 19.4509 24.2769 20.5 23.6406C21.4141 23.0828 22.204 22.6 23.875 22.6H25V20.2H23.875C23.1159 20.193 22.3589 20.2938 21.625 20.5V10.6C21.625 9.93673 22.1282 9.4 22.75 9.4H23.875V7H22.75C20.8856 7 19.375 8.61133 19.375 10.6V11.8H12.625V10.6C12.625 9.93673 13.1282 9.4 13.75 9.4H14.875V7H13.75C11.8856 7 10.375 8.61133 10.375 10.6V20.5C9.64111 20.2938 8.88415 20.193 8.125 20.2H7V22.6H8.125C9.79602 22.6 10.5859 23.0828 11.5 23.6406ZM12.625 14.1999H19.375V16.5999H12.625V14.1999ZM19.375 18.9999V21.5617C18.4609 22.1195 17.6677 22.5999 16 22.5999C14.3323 22.5999 13.5391 22.1195 12.625 21.5617V18.9999H19.375Z" fill="#DCD7C4"/>
</svg>
