<svg width="31" height="31" viewBox="0 0 31 31" fill="none" xmlns="http://www.w3.org/2000/svg">
<path d="M15.4999 0.5C7.21586 0.5 0.5 7.21584 0.5 15.5001C0.5 23.7847 7.21586 30.5 15.4999 30.5C23.7848 30.5 30.5 23.7847 30.5 15.5001C30.5 7.21638 23.7849 0.500716 15.4997 0.500716L15.4999 0.5ZM22.3788 22.1344C22.3148 22.2393 22.2307 22.3306 22.1314 22.4029C22.0321 22.4753 21.9195 22.5273 21.8 22.5561C21.6805 22.5849 21.5566 22.5898 21.4352 22.5707C21.3139 22.5515 21.1975 22.5085 21.0927 22.4443C17.5709 20.2931 13.1373 19.8058 7.91604 20.9988C7.67427 21.0538 7.42056 21.0105 7.21068 20.8785C7.00079 20.7465 6.8519 20.5366 6.79673 20.2948C6.76925 20.1752 6.76565 20.0512 6.78613 19.9301C6.80662 19.809 6.85078 19.6932 6.9161 19.5892C6.98143 19.4852 7.06662 19.3951 7.1668 19.3241C7.26699 19.2531 7.3802 19.2025 7.49995 19.1753C13.2138 17.8699 18.115 18.432 22.0689 20.8483C22.5095 21.1188 22.6492 21.6938 22.3788 22.1344ZM24.2147 18.0501C23.8762 18.6003 23.1561 18.7741 22.6063 18.4356C18.5743 15.9572 12.4282 15.2395 7.65918 16.6871C7.04069 16.874 6.38744 16.5254 6.19973 15.908C6.11015 15.6111 6.14195 15.2909 6.28815 15.0174C6.43435 14.744 6.68301 14.5397 6.97961 14.4494C12.4271 12.7964 19.1994 13.5971 23.8296 16.4425C24.3795 16.781 24.5533 17.5009 24.2147 18.0501ZM24.3724 13.797C19.538 10.9255 11.5618 10.6614 6.94611 12.0624C6.20492 12.2872 5.4211 11.8687 5.19648 11.1275C5.08848 10.7714 5.12632 10.387 5.30169 10.0588C5.47706 9.73057 5.7756 9.48545 6.13166 9.37732C11.4302 7.7688 20.2383 8.07958 25.8042 11.3839C25.9629 11.4777 26.1014 11.6019 26.212 11.7494C26.3225 11.8969 26.4029 12.0647 26.4485 12.2433C26.4941 12.4219 26.504 12.6077 26.4777 12.7901C26.4513 12.9725 26.3893 13.148 26.295 13.3064C25.901 13.9731 25.0376 14.1929 24.3731 13.797H24.3724Z" fill="#DCD7C4"/>
</svg>
