<svg width="24" height="24" viewBox="0 0 24 24" fill="none" xmlns="http://www.w3.org/2000/svg">
<path d="M12.2508 7.87585C9.38524 7.87585 7.03904 9.77897 6.74064 12.2603C6.70236 12.2595 6.66408 12.2509 6.6258 12.2509C4.6297 12.2509 3 13.879 3 15.8751C3 17.8712 4.62968 19.5009 6.6258 19.5009H6.62736C7.25002 19.4993 7.8758 19.461 8.45782 19.2501C8.82736 19.1165 9.15158 18.8665 9.43828 18.5595C9.725 18.8665 10.0492 19.1165 10.4187 19.2501C11.0008 19.461 11.6266 19.4993 12.25 19.5001H12.2523C12.875 19.4993 13.5008 19.461 14.0828 19.2501C14.4523 19.1165 14.7765 18.8665 15.0632 18.5595C15.35 18.8665 15.6742 19.1165 16.0437 19.2501C16.6257 19.461 17.2515 19.4993 17.8749 19.5001H17.8757C19.8718 19.5001 21.5015 17.8704 21.5015 15.8743C21.5015 13.8782 19.8718 12.2501 17.8757 12.2501H17.8718C17.8343 12.2501 17.7976 12.2587 17.7609 12.2603C17.4624 9.77906 15.1164 7.87585 12.2508 7.87585ZM12.2508 8.87585C14.8484 8.87585 16.8712 10.6485 16.8734 12.7469L16.8195 13.3984L17.4555 13.2883C17.5945 13.264 17.7344 13.2515 17.8758 13.2508C19.3313 13.2508 20.5 14.4195 20.5 15.875C20.5 17.3304 19.332 18.5 17.8766 18.5008C17.3 18.5 16.7789 18.4531 16.3852 18.3101C15.9914 18.1672 15.7188 17.9601 15.5133 17.5336L15.0625 16.5961L14.6118 17.5336C14.4071 17.9601 14.1344 18.1672 13.7399 18.3101C13.3461 18.4531 12.8266 18.5 12.2508 18.5008C11.6743 18.5 11.1532 18.4531 10.7594 18.3101C10.3657 18.1672 10.093 17.9601 9.88754 17.5336L9.43676 16.5961L8.98598 17.5336C8.78286 17.9601 8.5102 18.1672 8.11644 18.3101C7.72268 18.4531 7.20238 18.5 6.62582 18.5008C5.17036 18.5008 4.00162 17.3304 4.00162 15.875C4.00162 14.4195 5.17038 13.2508 6.62582 13.2508C6.76801 13.2508 6.90942 13.2617 7.04926 13.2851L7.68676 13.3898L7.62816 12.7453C7.63129 10.6477 9.65316 8.87568 12.2508 8.87488L12.2508 8.87585Z" fill="black"/>
<path d="M16.6259 6.00085C15.1063 6.00085 13.7455 6.95163 13.2227 8.37905L14.1617 8.72359C14.5406 7.68687 15.5227 7.00015 16.6257 7.00015C18.0812 7.00015 19.2499 8.16891 19.2499 9.62435C19.2499 10.8345 18.4288 11.8829 17.2538 12.1727L17.4944 13.1431C19.1108 12.7438 20.2506 11.2884 20.2506 9.62347C20.2506 7.62737 18.621 5.99927 16.6248 5.99927L16.6259 6.00085Z" fill="black"/>
<path d="M16.125 4V5.25H17.1258V4H16.125Z" fill="black"/>
<path d="M20.6469 4.89685L19.3969 6.14685L20.1047 6.85389L21.3547 5.60389L20.6469 4.89685Z" fill="black"/>
<path d="M12.6049 4.89685L11.897 5.60389L13.147 6.85389L13.8549 6.14685L12.6049 4.89685Z" fill="black"/>
</svg>
