<svg width="190" height="190" viewBox="0 0 190 190" fill="none" xmlns="http://www.w3.org/2000/svg">
<path fill-rule="evenodd" clip-rule="evenodd" d="M116.885 22H72.8848V36.2339L80.0601 43.4092C80.1748 39.7285 81.6368 36.0821 84.4461 33.2727C90.304 27.4149 99.8015 27.4149 105.659 33.2727C108.427 36.0408 109.887 39.6216 110.039 43.247L116.885 36.4017V22ZM68.8848 18V32.2339L58.8692 22.2183L22.0996 58.9878L32.1645 69.0527H18V121.053H70V110.969L90.1 131.069L58.9873 162.181L27.8746 131.069L37.8903 121.053H32.2334L22.2177 131.069L58.9873 167.838L94.9687 131.857L94.9692 131.857L92.5421 134.284C94.1205 133.916 95.7644 133.9 97.3484 134.237L105.812 142.7C106.56 146.221 105.566 150.039 102.831 152.774C98.5351 157.07 91.5703 157.07 87.2746 152.774C84.4836 149.983 83.5059 146.065 84.3415 142.485L80.147 146.68C80.5131 149.939 81.9462 153.102 84.4461 155.602C90.304 161.46 99.8015 161.46 105.659 155.602C108.121 153.141 109.548 150.036 109.941 146.829L116.885 153.773V168H72.8848V153.942L68.8848 157.942V172H120.885V157.773L130.994 167.882L167.764 131.113L157.704 121.053H152.047L162.107 131.113L130.994 162.225L99.8815 131.113L120 110.994V120.489C116.372 123.422 114.053 127.909 114.053 132.938C114.053 141.774 121.216 148.938 130.053 148.938C138.889 148.938 146.053 141.774 146.053 132.938C146.053 128.221 144.012 123.981 140.765 121.053H120V121.053H172V69.0527H157.773L167.882 58.9437L131.112 22.1742L120.885 32.4017V18H68.8848ZM152.116 69.0527L162.225 58.9437L131.112 27.831L99.9996 58.9437L120 78.9441V70.5415C116.817 67.7909 114.803 63.7244 114.803 59.1875C114.803 50.9032 121.518 44.1875 129.803 44.1875C138.087 44.1875 144.803 50.9032 144.803 59.1875C144.803 62.9646 143.407 66.4156 141.102 69.0527H152.116ZM134.674 69.0527C138.306 67.2561 140.803 63.5134 140.803 59.1875C140.803 53.1124 135.878 48.1875 129.803 48.1875C123.728 48.1875 118.803 53.1124 118.803 59.1875C118.803 63.5134 121.3 67.2561 124.931 69.0527H134.674ZM120 84.601L105.399 70H84.6265L70 84.6265V105.312L95.0128 130.325L95.0132 130.324L94.6891 130C94.9057 129.995 95.1224 129.994 95.339 129.998L101.337 124H88.6891L84.6891 120H105.337L120 105.337V84.601ZM70 78.9697L89.9819 58.9878L58.8692 27.8751L27.7565 58.9878L37.8214 69.0527H48.003C45.6988 66.4156 44.3027 62.9646 44.3027 59.1875C44.3027 50.9032 51.0185 44.1875 59.3027 44.1875C67.587 44.1875 74.3027 50.9032 74.3027 59.1875C74.3027 63.2833 72.6611 66.9957 70 69.7027V78.9697ZM64.1742 69.0527C67.8056 67.2561 70.3027 63.5134 70.3027 59.1875C70.3027 53.1124 65.3779 48.1875 59.3027 48.1875C53.2276 48.1875 48.3027 53.1124 48.3027 59.1875C48.3027 63.5134 50.7999 67.2561 54.4313 69.0527H64.1742ZM95.0128 59.6138L101.399 66H88.6265L95.0128 59.6138ZM90.5855 53.9346L84.9974 48.3466C83.2046 44.3086 83.9636 39.4121 87.2746 36.1012C91.5703 31.8054 98.5351 31.8054 102.831 36.1012C106.062 39.3324 106.863 44.0737 105.233 48.0534L99.2268 54.0597C96.46 55.1927 93.3252 55.1511 90.5855 53.9346ZM48.7241 121.053C45.9932 123.77 44.3027 127.531 44.3027 131.688C44.3027 139.972 51.0185 146.688 59.3027 146.688C67.587 146.688 74.3027 139.972 74.3027 131.688C74.3027 127.531 72.6123 123.77 69.8813 121.053H62.1253C66.8328 122.299 70.3027 126.588 70.3027 131.688C70.3027 137.763 65.3779 142.688 59.3027 142.688C53.2276 142.688 48.3027 137.763 48.3027 131.688C48.3027 126.588 51.7727 122.299 56.4802 121.053H48.7241ZM141.786 132.938C141.786 139.418 136.533 144.671 130.053 144.671C123.573 144.671 118.319 139.418 118.319 132.938C118.319 126.457 123.573 121.204 130.053 121.204C136.533 121.204 141.786 126.457 141.786 132.938ZM22 73.0527L22 117.053H66V73.0527H22ZM124 73.0527V117.053H168V73.0527H124ZM157.053 94.9375C157.053 101.013 152.128 105.938 146.053 105.938C139.978 105.938 135.053 101.013 135.053 94.9375C135.053 88.8624 139.978 83.9375 146.053 83.9375C152.128 83.9375 157.053 88.8624 157.053 94.9375ZM161.053 94.9375C161.053 103.222 154.337 109.938 146.053 109.938C137.768 109.938 131.053 103.222 131.053 94.9375C131.053 86.6532 137.768 79.9375 146.053 79.9375C154.337 79.9375 161.053 86.6532 161.053 94.9375ZM44.0527 105.938C50.1279 105.938 55.0527 101.013 55.0527 94.9375C55.0527 88.8624 50.1279 83.9375 44.0527 83.9375C37.9776 83.9375 33.0527 88.8624 33.0527 94.9375C33.0527 101.013 37.9776 105.938 44.0527 105.938ZM44.0527 109.938C52.337 109.938 59.0527 103.222 59.0527 94.9375C59.0527 86.6532 52.337 79.9375 44.0527 79.9375C35.7685 79.9375 29.0527 86.6532 29.0527 94.9375C29.0527 103.222 35.7685 109.938 44.0527 109.938Z" fill="url(#paint0_linear_5215_9760)"/>
<defs>
<linearGradient id="paint0_linear_5215_9760" x1="95" y1="18" x2="95" y2="172" gradientUnits="userSpaceOnUse">
<stop stop-color="white"/>
<stop offset="1" stop-color="white" stop-opacity="0.5"/>
</linearGradient>
</defs>
</svg>
