<svg width="77" height="12" viewBox="0 0 77 12" fill="none" xmlns="http://www.w3.org/2000/svg">
<path d="M0.392 0.444H2.394L5.096 6.66H5.124L8.134 0.0519991L11.144 6.66H11.172L13.874 0.444H15.82L11.144 11.126L8.12 4.308H8.092L5.068 11.126L0.392 0.444ZM20.846 0.444H22.736V4.602H27.062V0.444H28.952V11H27.062V6.352H22.736V11H20.846V0.444ZM36.983 11.196C33.875 11.196 31.523 8.774 31.523 5.722C31.523 2.67 33.875 0.248 36.983 0.248C40.091 0.248 42.457 2.67 42.457 5.722C42.457 8.774 40.091 11.196 36.983 11.196ZM36.983 9.39C38.999 9.39 40.511 7.808 40.511 5.722C40.511 3.636 38.999 2.054 36.983 2.054C34.967 2.054 33.469 3.636 33.469 5.722C33.469 7.808 34.967 9.39 36.983 9.39ZM46.1363 2.194H43.6863V0.444H50.4763V2.194H48.0263V11H46.1363V2.194ZM52.8519 0.444H58.6759V2.194H54.7419V4.56H58.6059V6.31H54.7419V9.25H58.6759V11H52.8519V0.444ZM61.5198 0.444H63.4098V9.25H66.7978V11H61.5198V0.444ZM70.2567 8.144C70.4107 8.858 71.0267 9.39 71.8947 9.39C72.8467 9.39 73.5187 8.746 73.5187 7.92C73.5187 7.374 73.2247 6.842 72.4127 6.576L70.9147 6.086C69.4167 5.596 68.7027 4.462 68.7027 3.202C68.7027 1.536 70.0187 0.248 71.9087 0.248C73.3087 0.248 74.3867 0.947999 74.8627 1.998L73.1127 2.768C72.9167 2.348 72.4827 2.054 71.9087 2.054C71.1667 2.054 70.6487 2.544 70.6487 3.202C70.6487 3.636 70.8727 4.07 71.5727 4.294L73.0707 4.784C74.6527 5.302 75.4647 6.576 75.4647 7.92C75.4647 9.74 73.9947 11.196 71.8947 11.196C70.0047 11.196 68.6187 10.006 68.3667 8.438L70.2567 8.144Z" fill="white"/>
</svg>
